HIERARCHY
ROOT root
{
	OFFSET 0.000000 0.000000 0.000000
	CHANNELS 6 Xposition Yposition Zposition Zrotation Yrotation Xrotation
	JOINT lhip
	{
		OFFSET 0.058581 -0.082280 -0.017664
		CHANNELS 3 Zrotation Yrotation Xrotation
		JOINT lknee
		{
			OFFSET 0.043451 -0.386469 0.008037
			CHANNELS 3 Zrotation Yrotation Xrotation
			JOINT lankle
			{
				OFFSET -0.014790 -0.426874 -0.037428
				CHANNELS 3 Zrotation Yrotation Xrotation
				JOINT ltoe
				{
					OFFSET 0.041054 -0.060286 0.122042
					CHANNELS 3 Zrotation Yrotation Xrotation
					End Site
					{
						OFFSET 0.000000 0.000000 0.000000
					}
				}
			}
		}
	}
	JOINT rhip
	{
		OFFSET -0.060310 -0.090513 -0.013543
		CHANNELS 3 Zrotation Yrotation Xrotation
		JOINT rknee
		{
			OFFSET -0.043257 -0.383688 -0.004843
			CHANNELS 3 Zrotation Yrotation Xrotation
			JOINT rankle
			{
				OFFSET 0.019056 -0.420046 -0.034562
				CHANNELS 3 Zrotation Yrotation Xrotation
				JOINT rtoe
				{
					OFFSET -0.034840 -0.062106 0.130323
					CHANNELS 3 Zrotation Yrotation Xrotation
					End Site
					{
						OFFSET 0.000000 0.000000 0.000000
					}
				}
			}
		}
	}
	JOINT lowerback
	{
		OFFSET 0.004439 0.124404 -0.038385
		CHANNELS 3 Zrotation Yrotation Xrotation
		JOINT upperback
		{
			OFFSET 0.004488 0.137956 0.026820
			CHANNELS 3 Zrotation Yrotation Xrotation
			JOINT chest
			{
				OFFSET -0.002265 0.056032 0.002855
				CHANNELS 3 Zrotation Yrotation Xrotation
				JOINT lowerneck
				{
					OFFSET -0.013390 0.211636 -0.033468
					CHANNELS 3 Zrotation Yrotation Xrotation
					JOINT upperneck
					{
						OFFSET 0.010113 0.088937 0.050410
						CHANNELS 3 Zrotation Yrotation Xrotation
						End Site
						{
							OFFSET 0.000000 0.000000 0.000000
						}
					}
				}
				JOINT lclavicle
				{
					OFFSET 0.071702 0.114000 -0.018898
					CHANNELS 3 Zrotation Yrotation Xrotation
					JOINT lshoulder
					{
						OFFSET 0.122921 0.045205 -0.019046
						CHANNELS 3 Zrotation Yrotation Xrotation
						JOINT lelbow
						{
							OFFSET 0.255332 -0.015649 -0.022946
							CHANNELS 3 Zrotation Yrotation Xrotation
							JOINT lwrist
							{
								OFFSET 0.265709 0.012698 -0.007375
								CHANNELS 3 Zrotation Yrotation Xrotation
								End Site
								{
									OFFSET 0.000000 0.000000 0.000000
								}
							}
						}
					}
				}
				JOINT rclavicle
				{
					OFFSET -0.082954 0.112472 -0.023707
					CHANNELS 3 Zrotation Yrotation Xrotation
					JOINT rshoulder
					{
						OFFSET -0.113228 0.046853 -0.008472
						CHANNELS 3 Zrotation Yrotation Xrotation
						JOINT relbow
						{
							OFFSET -0.260127 -0.014369 -0.031269
							CHANNELS 3 Zrotation Yrotation Xrotation
							JOINT rwrist
							{
								OFFSET -0.269108 0.006794 -0.006027
								CHANNELS 3 Zrotation Yrotation Xrotation
								End Site
								{
									OFFSET 0.000000 0.000000 0.000000
								}
							}
						}
					}
				}
			}
		}
	}
}
MOTION
Frames: 14
Frame Time: 0.033333
2.231212 0.433534 1.006062 -71.709273 -2.999638 96.669277 1.899008 -7.008485 -15.146039 -4.205292 -0.796711 4.465396 -1.132724 2.223665 -1.584180 0.000000 -0.000000 0.000000 -2.478088 -5.034029 -14.159799 -1.159661 -16.597909 9.163078 5.232251 -9.248938 -4.130163 0.000000 -0.000000 0.000000 0.844700 3.584880 7.254096 -2.967948 1.010631 -9.854096 -1.078819 0.818217 -0.639643 -0.680808 35.485613 -4.246751 -1.076738 38.073617 4.407590 -21.881183 9.589788 -1.285755 -51.123796 -3.462388 20.952528 -89.514839 -83.989683 98.391001 -2.385132 -20.452765 -42.829846 16.626158 -8.099843 1.567684 55.179113 3.002134 28.829734 20.346578 84.125041 25.448787 13.051824 16.663813 -42.068912 
2.230884 0.433170 1.005883 -71.396108 -3.199440 95.841238 1.345277 -6.524515 -14.048088 -4.047877 -1.640612 4.167604 -1.485438 2.229943 -1.373928 0.000000 -0.000000 0.000000 -2.717572 -5.853465 -13.188566 -1.138430 -16.238370 9.127048 6.058499 -9.112793 -4.156717 0.000000 -0.000000 0.000000 0.643256 3.380756 8.844255 -2.988431 1.131498 -10.956604 -0.949432 0.816541 -0.095822 -0.610404 35.465971 -4.356121 -1.202771 38.127451 4.487152 -21.605765 9.631634 -1.272557 -51.682601 -3.507555 20.688213 -89.738260 -83.801272 99.186574 -2.465366 -20.456535 -43.141033 16.089772 -8.165799 1.660243 55.888772 3.038424 28.939101 16.536827 84.376628 22.335642 13.337455 16.612580 -42.154291 
2.230495 0.433781 1.005715 -71.612448 -3.113015 95.905967 1.634038 -6.242303 -13.890818 -4.281456 -1.633315 3.835281 -1.476373 2.186499 -1.283811 0.000000 -0.000000 0.000000 -2.578471 -5.568478 -13.294130 -1.225734 -16.145593 9.195554 5.966124 -9.249260 -4.107716 0.000000 -0.000000 0.000000 0.485419 3.586914 8.637535 -2.926337 1.338733 -10.686552 -0.820580 0.900581 -0.088145 -0.655666 35.433527 -4.350274 -1.253374 38.190925 4.266152 -21.597688 9.554841 -1.186829 -51.791691 -3.442137 20.568768 -91.343504 -83.969992 101.053675 -2.635592 -20.452056 -43.101968 15.985016 -8.020592 1.867741 56.151959 2.906090 28.836906 12.727565 84.694624 18.950908 13.523972 16.665712 -41.826426 
2.230947 0.433769 1.005687 -71.387271 -3.099211 95.871441 1.673351 -6.255269 -13.893456 -4.304070 -1.670806 3.818122 -1.584353 2.011441 -1.191335 0.000000 -0.000000 0.000000 -2.585612 -5.583761 -13.300010 -1.276573 -16.333834 9.303707 5.911528 -9.262590 -4.155864 0.000000 -0.000000 0.000000 0.523814 3.579994 8.747453 -2.902840 1.342232 -10.567414 -0.817964 0.902303 -0.094344 -0.650508 35.448916 -4.434157 -1.267304 38.107233 4.291733 -21.540525 9.548810 -1.112137 -52.094175 -3.467910 20.454862 -92.454732 -84.193976 102.666440 -2.757904 -20.518617 -42.984536 15.924355 -8.082438 1.904524 56.551169 2.934002 28.699887 8.191975 84.851987 15.112007 13.844247 16.662825 -41.321161 
2.231186 0.433749 1.005691 -71.289701 -3.095850 95.872013 1.691812 -6.253249 -13.919911 -4.326640 -1.683806 3.823028 -1.617121 1.911841 -1.170529 0.000000 -0.000000 0.000000 -2.589192 -5.602878 -13.330802 -1.303454 -16.417629 9.371052 5.893235 -9.246749 -4.179486 0.000000 -0.000000 0.000000 0.524642 3.581788 8.778459 -2.874528 1.335171 -10.514138 -0.816875 0.907649 -0.087924 -0.604655 35.444716 -4.417431 -1.246899 38.045499 4.355151 -21.508205 9.565159 -1.086335 -52.249078 -3.470110 20.381230 -93.357158 -84.312213 103.882626 -2.864066 -20.520603 -42.861456 15.931990 -8.118492 1.916448 56.794823 2.974053 28.603511 5.179988 84.920385 12.503561 14.034404 16.626694 -40.927043 
2.231453 0.433702 1.005717 -71.184652 -3.093105 95.903002 1.719827 -6.272804 -13.963491 -4.350784 -1.706658 3.794406 -1.642864 1.812302 -1.135148 0.000000 -0.000000 0.000000 -2.584247 -5.614950 -13.402205 -1.343737 -16.498640 9.446084 5.851463 -9.246893 -4.223087 0.000000 -0.000000 0.000000 0.512840 3.599590 8.779592 -2.829734 1.332439 -10.501063 -0.812552 0.912117 -0.074067 -0.503656 35.454878 -4.317241 -1.173544 37.988372 4.536120 -21.467398 9.584140 -1.041294 -52.434018 -3.470652 20.298505 -94.422033 -84.468129 105.341933 -2.921747 -20.490280 -42.679043 15.947046 -8.179846 1.916925 57.103028 2.984630 28.489784 1.365175 85.001115 9.312398 14.288314 16.567175 -40.329922 
2.231631 0.433615 1.005801 -71.074546 -3.089662 95.927108 1.743728 -6.273249 -14.001137 -4.384270 -1.720997 3.778549 -1.668882 1.707581 -1.122382 0.000000 -0.000000 0.000000 -2.576241 -5.623653 -13.429230 -1.373351 -16.582076 9.469722 5.820739 -9.249792 -4.252955 0.000000 -0.000000 0.000000 0.503176 3.599966 8.772199 -2.778309 1.317365 -10.521443 -0.809567 0.902158 -0.047011 -0.404933 35.453219 -4.204301 -1.093648 37.908284 4.753652 -21.420302 9.636353 -0.997842 -52.604095 -3.488233 20.220241 -95.307425 -84.575878 106.591625 -2.909818 -20.483369 -42.520437 15.969798 -8.291071 1.879363 57.392428 3.008096 28.397948 -2.098607 85.064092 6.444264 14.427210 16.512671 -39.692597 
2.231715 0.433469 1.005891 -70.972031 -3.094657 95.946094 1.742972 -6.270825 -14.007846 -4.399893 -1.771115 3.733457 -1.682967 1.635306 -1.099385 0.000000 -0.000000 0.000000 -2.577888 -5.644241 -13.450008 -1.395216 -16.637747 9.496703 5.812112 -9.273440 -4.276657 0.000000 -0.000000 0.000000 0.493243 3.594430 8.741391 -2.735774 1.301947 -10.528013 -0.813849 0.885959 -0.004920 -0.355255 35.328021 -4.129224 -0.999434 37.691540 4.939643 -21.353985 9.703925 -0.987590 -52.761396 -3.507214 20.153289 -96.484989 -84.626374 108.096554 -2.836778 -20.382668 -42.343050 15.981928 -8.395813 1.809811 57.617931 3.002983 28.301441 -5.009820 85.152530 4.026124 14.502186 16.393799 -39.041860 
2.231758 0.433286 1.005940 -70.900338 -3.105518 95.961403 1.726813 -6.283805 -14.011379 -4.401938 -1.784522 3.703542 -1.704625 1.581954 -1.081900 0.000000 -0.000000 0.000000 -2.596615 -5.643909 -13.461219 -1.412503 -16.692033 9.518798 5.802171 -9.277904 -4.310337 0.000000 -0.000000 0.000000 0.490257 3.588808 8.744358 -2.707618 1.277244 -10.552838 -0.848002 0.888261 0.030293 -0.305129 34.938886 -4.162534 -0.876318 37.165965 5.148848 -21.317194 9.788027 -1.003247 -52.860221 -3.531278 20.100925 -98.229311 -84.691298 110.152367 -2.853723 -20.371872 -42.091628 16.015732 -8.456088 1.746312 57.723090 2.964694 28.210181 -7.041545 85.288697 2.403393 14.598698 16.319073 -38.572460 
2.231719 0.433096 1.005939 -70.814485 -3.114792 95.956687 1.708344 -6.291994 -13.993934 -4.411882 -1.838654 3.668785 -1.721484 1.563020 -1.063159 0.000000 -0.000000 0.000000 -2.613282 -5.649145 -13.430235 -1.413648 -16.712498 9.495965 5.790942 -9.340888 -4.316318 0.000000 -0.000000 0.000000 0.468520 3.587402 8.768834 -2.678736 1.271435 -10.595984 -0.892527 0.868267 0.067571 -0.188763 33.964981 -4.314676 -0.586905 36.045807 5.623764 -21.354342 9.875758 -1.029386 -52.843007 -3.585849 20.078815 -100.416523 -84.737128 112.606741 -2.895799 -20.380154 -41.799484 16.067878 -8.416486 1.640638 57.677391 2.808923 28.159579 -8.036069 85.467866 1.751538 14.635981 16.284388 -38.174459 
2.231592 0.432975 1.005912 -70.779687 -3.121189 95.961328 1.692825 -6.282337 -13.986787 -4.413622 -1.888887 3.658407 -1.731410 1.572981 -1.075036 0.000000 -0.000000 0.000000 -2.616807 -5.647714 -13.412710 -1.424068 -16.705562 9.479724 5.787249 -9.384095 -4.322044 0.000000 -0.000000 0.000000 0.441090 3.600712 8.747460 -2.669817 1.279420 -10.635098 -0.934835 0.837035 0.120567 -0.042569 32.898143 -4.395605 -0.387767 34.886909 5.890763 -21.435275 9.973389 -1.073160 -52.747674 -3.649948 20.102680 -101.788270 -84.752419 114.096233 -2.877981 -20.361461 -41.542784 16.087761 -8.361027 1.510382 57.567155 2.674511 28.173325 -6.693796 85.556333 3.114420 14.529838 16.213314 -38.203743 
2.231442 0.432869 1.005915 -70.774719 -3.122062 95.979970 1.691519 -6.278211 -13.997270 -4.421299 -1.901273 3.663520 -1.755605 1.581964 -1.082968 0.000000 -0.000000 0.000000 -2.615604 -5.622826 -13.415798 -1.432194 -16.690981 9.470565 5.788189 -9.421658 -4.322278 0.000000 -0.000000 0.000000 0.408224 3.602983 8.718219 -2.651941 1.298276 -10.696680 -0.969468 0.785161 0.199636 0.156583 31.830517 -4.460350 -0.264142 33.769767 6.083582 -21.569391 10.143817 -1.181500 -52.636952 -3.708765 20.171436 -102.663070 -84.762680 114.955828 -2.766877 -20.354079 -41.392480 16.137372 -8.349890 1.329313 57.357791 2.632280 28.278668 -3.794276 85.635074 5.938501 14.341385 16.169308 -38.252468 
2.231231 0.432735 1.005922 -70.769928 -3.125122 95.982146 1.678643 -6.290360 -13.994944 -4.420244 -1.940196 3.682330 -1.756301 1.613764 -1.098180 0.000000 -0.000000 0.000000 -2.628341 -5.610611 -13.419515 -1.432969 -16.670534 9.503821 5.796713 -9.467527 -4.331484 0.000000 -0.000000 0.000000 0.359170 3.611345 8.680257 -2.625281 1.311137 -10.739548 -0.982904 0.716579 0.273238 0.297805 30.823733 -4.519457 -0.170907 32.725581 6.147333 -21.648632 10.296555 -1.268026 -52.603258 -3.764762 20.247843 -102.931205 -84.785249 115.136712 -2.602228 -20.271406 -41.405367 16.159554 -8.353892 1.134553 57.153004 2.592977 28.384787 -0.580263 85.712736 9.077227 14.205050 16.122715 -38.356691 
2.231064 0.432562 1.005947 -70.757527 -3.117855 95.974945 1.671306 -6.289082 -13.983997 -4.415153 -1.976362 3.705303 -1.781845 1.620818 -1.110196 0.000000 -0.000000 0.000000 -2.629412 -5.619841 -13.433329 -1.449110 -16.652098 9.577318 5.843129 -9.483588 -4.340383 0.000000 -0.000000 0.000000 0.331166 3.591772 8.677948 -2.587531 1.305672 -10.792364 -0.977508 0.656749 0.341801 0.397731 30.022521 -4.636004 -0.126403 31.942690 6.152855 -21.731195 10.431710 -1.352993 -52.603876 -3.778439 20.302533 -104.036189 -84.823938 116.183496 -2.318293 -20.174112 -41.277131 16.194403 -8.351736 0.951977 56.927941 2.570798 28.469981 2.781273 85.796344 12.425087 14.179662 16.112533 -38.310922 
